# xmcd
#
# Track frame offsets: 
#        150
#        19412
#        35162
#        55337
#        74012
#        93212
#        110762
#        126732
#        142037
#        160712
#        177437
#        201512
#        218312
#        234512
#        256562
#        274337
#        294662
#
# Disc length: 4159 seconds
#
# Revision: 1
# Processed by: cddbd v1.5.2PL0 Copyright (c) Steve Scherf et al.
# Submitted via: ExactAudioCopyFreeDBPlugin 1.0
#
DISCID=0f103d11
DTITLE=Swiss Blues Authority - Swiss Blues Authority
DYEAR=1994
DGENRE=Blues
TTITLE0=I'm Ready
TTITLE1=Let Me Love You
TTITLE2=Little Red Rooster
TTITLE3=Rock Me Baby
TTITLE4=My Love Has Never Died
TTITLE5=You Got To Move
TTITLE6=You Can't Judge A Book
TTITLE7=You Shook Me
TTITLE8=One Bourbon, One Scotch, One Beer
TTITLE9=Ain't Superstitious
TTITLE10=I Need My Baby
TTITLE11=Lonesome Whistle
TTITLE12=Sitting On Top Of The World
TTITLE13=I Put A Spell On You
TTITLE14=Sea Of Love
TTITLE15=What's The Use Of Getting Sober
TTITLE16=You Got To Move (Alternate Version)
EXTD=Lakeside Music, Produced And Arranged By Chris Gora
EXTT0=
EXTT1=
EXTT2=
EXTT3=
EXTT4=
EXTT5=
EXTT6=
EXTT7=
EXTT8=
EXTT9=
EXTT10=
EXTT11=
EXTT12=
EXTT13=
EXTT14=
EXTT15=
EXTT16=
PLAYORDER=
